<?xml version="1.0" encoding="UTF-8"?>
<svg xmlns="http://www.w3.org/2000/svg" xmlns:xlink="http://www.w3.org/1999/xlink" width="24px" height="24px" viewBox="0 0 24 24" version="1.1">
<g id="surface1">
<path style=" stroke:none;fill-rule:nonzero;fill:rgb(0%,0%,0%);fill-opacity:1;" d="M 11.078125 2.71875 C 6.914062 3.160156 3.542969 6.253906 2.816406 10.304688 C 2.769531 10.570312 2.722656 10.789062 2.714844 10.800781 C 2.703125 10.804688 2.476562 10.929688 2.210938 11.082031 C 1.601562 11.421875 1.445312 11.5625 1.28125 11.898438 C 1.105469 12.25 1.09375 12.792969 1.25 13.132812 C 1.476562 13.632812 2.015625 13.96875 2.578125 13.96875 L 2.855469 13.96875 L 2.90625 14.164062 C 3.40625 16.164062 4.46875 17.859375 6.023438 19.164062 C 7.90625 20.742188 10.445312 21.523438 12.847656 21.277344 C 15.285156 21.027344 17.410156 19.929688 19.023438 18.09375 C 19.894531 17.09375 20.648438 15.679688 20.976562 14.414062 L 21.085938 13.992188 L 21.425781 13.964844 C 22.023438 13.921875 22.445312 13.644531 22.6875 13.148438 C 22.84375 12.820312 22.847656 12.261719 22.691406 11.945312 C 22.519531 11.582031 22.320312 11.40625 21.777344 11.117188 C 21.496094 10.972656 21.253906 10.820312 21.234375 10.78125 C 21.214844 10.742188 21.15625 10.46875 21.097656 10.171875 C 20.453125 6.78125 17.855469 3.96875 14.492188 3.027344 C 13.5 2.746094 12.046875 2.617188 11.078125 2.71875 Z M 13.542969 3.46875 C 16.859375 4.082031 19.546875 6.605469 20.371094 9.875 C 20.445312 10.164062 20.492188 10.410156 20.480469 10.425781 C 20.464844 10.445312 20.246094 10.359375 19.988281 10.242188 C 19.445312 10 19.199219 9.96875 19.007812 10.132812 C 18.789062 10.328125 18.800781 10.515625 19.078125 11.140625 C 19.492188 12.070312 20.152344 13.335938 20.324219 13.515625 L 20.488281 13.679688 L 20.367188 14.164062 C 19.648438 16.984375 17.488281 19.296875 14.710938 20.226562 C 13.132812 20.75 11.347656 20.8125 9.773438 20.390625 C 6.6875 19.566406 4.285156 17.113281 3.539062 14.03125 L 3.460938 13.6875 L 3.640625 13.484375 C 3.890625 13.199219 4.359375 12.359375 4.683594 11.617188 C 5.078125 10.714844 5.128906 10.539062 5.0625 10.335938 C 4.941406 9.976562 4.660156 9.941406 3.980469 10.222656 C 3.722656 10.332031 3.496094 10.402344 3.484375 10.386719 C 3.441406 10.34375 3.59375 9.707031 3.78125 9.164062 C 4.832031 6.097656 7.554688 3.867188 10.828125 3.394531 C 11.476562 3.300781 12.851562 3.335938 13.542969 3.46875 Z M 3.753906 11.945312 C 3.113281 13.226562 3.074219 13.273438 2.601562 13.304688 C 2.367188 13.316406 2.292969 13.304688 2.15625 13.210938 C 1.90625 13.039062 1.78125 12.820312 1.78125 12.554688 C 1.78125 12.28125 1.859375 12.101562 2.070312 11.929688 C 2.207031 11.8125 4.265625 10.777344 4.304688 10.804688 C 4.3125 10.8125 4.0625 11.324219 3.753906 11.945312 Z M 20.78125 11.347656 C 21.351562 11.632812 21.875 11.921875 21.945312 11.984375 C 22.308594 12.328125 22.199219 13.007812 21.75 13.242188 C 21.675781 13.28125 21.5 13.3125 21.359375 13.3125 C 20.933594 13.3125 20.808594 13.179688 20.359375 12.300781 C 19.855469 11.316406 19.636719 10.828125 19.691406 10.828125 C 19.71875 10.828125 20.207031 11.0625 20.78125 11.347656 Z M 20.78125 11.347656 "/>
<path style=" stroke:none;fill-rule:nonzero;fill:rgb(0%,0%,0%);fill-opacity:1;" d="M 8.0625 6.9375 C 6.792969 7.101562 5.789062 8.089844 5.582031 9.378906 C 5.511719 9.8125 5.515625 9.882812 5.648438 10.007812 C 5.910156 10.273438 6.160156 10.09375 6.207031 9.59375 C 6.304688 8.574219 7.074219 7.761719 8.101562 7.585938 C 9.191406 7.398438 10.316406 8.136719 10.601562 9.230469 C 10.644531 9.398438 10.683594 9.625 10.683594 9.730469 C 10.6875 10.078125 10.996094 10.238281 11.226562 10.007812 C 11.359375 9.882812 11.363281 9.8125 11.292969 9.378906 C 11.15625 8.527344 10.695312 7.824219 9.96875 7.355469 C 9.460938 7.027344 8.679688 6.851562 8.0625 6.9375 Z M 8.0625 6.9375 "/>
<path style=" stroke:none;fill-rule:nonzero;fill:rgb(0%,0%,0%);fill-opacity:1;" d="M 15.089844 6.941406 C 14.179688 7.074219 13.339844 7.679688 12.9375 8.492188 C 12.628906 9.121094 12.53125 9.773438 12.707031 10.003906 C 12.914062 10.261719 13.265625 10.078125 13.265625 9.707031 C 13.265625 9.207031 13.566406 8.558594 13.972656 8.183594 C 15.375 6.886719 17.550781 7.730469 17.75 9.652344 C 17.792969 10.097656 18.019531 10.257812 18.285156 10.035156 C 18.390625 9.953125 18.398438 9.914062 18.382812 9.605469 C 18.371094 9.183594 18.183594 8.609375 17.945312 8.25 C 17.453125 7.515625 16.738281 7.0625 15.871094 6.941406 C 15.472656 6.886719 15.464844 6.886719 15.089844 6.941406 Z M 15.089844 6.941406 "/>
<path style=" stroke:none;fill-rule:nonzero;fill:rgb(0%,0%,0%);fill-opacity:1;" d="M 5.421875 11.703125 C 5.25 11.75 5.203125 11.949219 5.25 12.496094 C 5.421875 14.652344 6.519531 16.496094 8.320312 17.667969 C 9.003906 18.117188 9.769531 18.429688 10.636719 18.617188 C 11.253906 18.753906 12.578125 18.765625 13.195312 18.640625 C 15.671875 18.140625 17.597656 16.457031 18.371094 14.132812 C 18.59375 13.453125 18.703125 12.835938 18.703125 12.253906 C 18.703125 11.855469 18.695312 11.8125 18.601562 11.746094 C 18.507812 11.679688 17.808594 11.671875 12 11.675781 C 8.429688 11.679688 5.46875 11.691406 5.421875 11.703125 Z M 18.046875 12.511719 C 18.046875 13.023438 17.808594 13.925781 17.488281 14.605469 C 17.3125 14.976562 16.832031 15.742188 16.710938 15.84375 C 16.660156 15.886719 16.566406 15.835938 16.289062 15.613281 C 15.460938 14.953125 14.476562 14.539062 13.242188 14.339844 C 12.757812 14.257812 11.199219 14.253906 10.734375 14.335938 C 9.441406 14.554688 8.390625 14.996094 7.585938 15.664062 C 7.261719 15.9375 7.285156 15.941406 6.945312 15.453125 C 6.375 14.625 5.980469 13.546875 5.890625 12.546875 L 5.867188 12.328125 L 18.046875 12.328125 Z M 13.054688 14.976562 C 13.695312 15.074219 14.195312 15.207031 14.714844 15.421875 C 15.183594 15.625 15.824219 16.027344 16.054688 16.265625 L 16.195312 16.414062 L 15.984375 16.597656 C 15.664062 16.878906 15 17.320312 14.605469 17.503906 C 13.828125 17.875 13.140625 18.042969 12.234375 18.078125 C 10.695312 18.144531 9.371094 17.714844 8.171875 16.757812 C 7.953125 16.589844 7.78125 16.433594 7.78125 16.410156 C 7.78125 16.332031 8.273438 15.921875 8.625 15.722656 C 9.238281 15.359375 10.15625 15.054688 10.929688 14.960938 C 11.480469 14.890625 12.542969 14.902344 13.054688 14.976562 Z M 13.054688 14.976562 "/>
</g>
</svg>
